<?xml version="1.0" encoding="UTF-8"?>
<svg width="21px" height="19px" viewBox="0 0 21 19" version="1.1" xmlns="http://www.w3.org/2000/svg" xmlns:xlink="http://www.w3.org/1999/xlink">
    <!-- Generator: Sketch 55.2 (78181) - https://sketchapp.com -->
    <title>calendar-FFFFFF</title>
    <desc>Created with Sketch.</desc>
    <g id="Symbols" stroke="none" stroke-width="1" fill="none" fill-rule="evenodd">
        <g id="Booking-Status:-Completed-Label" transform="translate(-16.000000, -31.000000)" fill="#FFFFFF" fill-rule="nonzero">
            <g id="calendar-FFFFFF">
                <g transform="translate(16.000000, 31.000000)">
                    <path d="M0.790243902,18.9834146 L19.7385366,18.9834146 C20.142439,18.9834146 20.4585366,18.6673171 20.4585366,18.2634146 L20.4585366,2.19512195 C20.4585366,1.79121951 20.142439,1.47512195 19.7385366,1.47512195 L16.1736585,1.47512195 L16.1736585,0.860487805 C16.1736585,0.456585366 15.857561,0.140487805 15.4536585,0.140487805 C15.0497561,0.140487805 14.7336585,0.456585366 14.7336585,0.860487805 L14.7336585,1.47512195 L5.91804878,1.47512195 L5.91804878,0.860487805 C5.91804878,0.456585366 5.60195122,0.140487805 5.19804878,0.140487805 C4.79414634,0.140487805 4.47804878,0.456585366 4.47804878,0.860487805 L4.47804878,1.47512195 L0.790243902,1.47512195 C0.386341463,1.47512195 0.0702439024,1.79121951 0.0702439024,2.19512195 L0.0702439024,18.2809756 C0.0702439024,18.6673171 0.403902439,18.9834146 0.790243902,18.9834146 Z M1.5102439,2.91512195 L4.47804878,2.91512195 L4.47804878,3.30146341 C4.47804878,3.70536585 4.79414634,4.02146341 5.19804878,4.02146341 C5.60195122,4.02146341 5.91804878,3.70536585 5.91804878,3.30146341 L5.91804878,2.91512195 L14.7336585,2.91512195 L14.7336585,3.30146341 C14.7336585,3.70536585 15.0497561,4.02146341 15.4536585,4.02146341 C15.857561,4.02146341 16.1736585,3.70536585 16.1736585,3.30146341 L16.1736585,2.91512195 L19.0360976,2.91512195 L19.0360976,4.77658537 L1.5102439,4.77658537 L1.5102439,2.91512195 L1.5102439,2.91512195 Z M1.5102439,6.21658537 L19.0185366,6.21658537 L19.0185366,17.5609756 L1.5102439,17.5609756 L1.5102439,6.21658537 Z" id="Shape"></path>
                    <path d="M15.4536585,9.51804878 L5.09268293,9.51804878 C4.68878049,9.51804878 4.37268293,9.83414634 4.37268293,10.2380488 C4.37268293,10.6419512 4.68878049,10.9580488 5.09268293,10.9580488 L15.4536585,10.9580488 C15.857561,10.9580488 16.1736585,10.6419512 16.1736585,10.2380488 C16.1736585,9.83414634 15.857561,9.51804878 15.4536585,9.51804878 Z" id="Path"></path>
                    <path d="M10.2731707,12.995122 L5.09268293,12.995122 C4.68878049,12.995122 4.37268293,13.3112195 4.37268293,13.715122 C4.37268293,14.1190244 4.68878049,14.435122 5.09268293,14.435122 L10.2731707,14.435122 C10.6770732,14.435122 10.9931707,14.1190244 10.9931707,13.715122 C10.9931707,13.3112195 10.6770732,12.995122 10.2731707,12.995122 Z" id="Path"></path>
                </g>
            </g>
        </g>
    </g>
</svg>