<?xml version="1.0" encoding="UTF-8"?>
<svg width="23px" height="23px" viewBox="0 0 23 23" version="1.1" xmlns="http://www.w3.org/2000/svg" xmlns:xlink="http://www.w3.org/1999/xlink">
    <!-- Generator: Sketch 55.2 (78181) - https://sketchapp.com -->
    <title>clock-line-FFFFFF</title>
    <desc>Created with Sketch.</desc>
    <g id="16-Booking-Summary" stroke="none" stroke-width="1" fill="none" fill-rule="evenodd">
        <g id="16A-Booking-Summary@2x" transform="translate(-1330.000000, -837.000000)" fill="#FFFFFF" fill-rule="nonzero">
            <g id="Booking-Status:-On-Hold-Label" transform="translate(1172.000000, 801.000000)">
                <g id="clock-line-FFFFFF" transform="translate(158.000000, 36.000000)">
                    <path d="M11.3795122,22.6228593 C17.6042026,22.6228593 22.6423114,17.5652983 22.6423114,11.36006 C22.6423114,5.13536961 17.5847505,0.097260788 11.3795122,0.097260788 C5.17427392,0.097260788 0.116712946,5.13536961 0.116712946,11.36006 C0.116712946,17.5652983 5.15482176,22.6228593 11.3795122,22.6228593 Z M11.3795122,1.67288555 C16.7288555,1.67288555 21.0666867,6.0107167 21.0666867,11.36006 C21.0666867,16.7094034 16.7288555,21.0472345 11.3795122,21.0472345 C6.03016886,21.0472345 1.69233771,16.6899512 1.69233771,11.36006 C1.69233771,6.0107167 6.03016886,1.67288555 11.3795122,1.67288555 Z" id="Shape"></path>
                    <path d="M10.8543039,12.6828068 L14.6085704,12.6828068 C15.05597,12.6828068 15.4061088,12.3326679 15.4061088,11.8852683 C15.4061088,11.4378687 15.05597,11.0877298 14.6085704,11.0877298 L11.6518424,11.0877298 L11.6518424,6.45811632 C11.6518424,6.0107167 11.3017036,5.66057786 10.8543039,5.66057786 C10.4069043,5.66057786 10.0567655,6.0107167 10.0567655,6.45811632 L10.0567655,11.8852683 C10.0567655,12.3326679 10.4069043,12.6828068 10.8543039,12.6828068 L10.8543039,12.6828068 Z" id="Path"></path>
                </g>
            </g>
        </g>
    </g>
</svg>