<?xml version="1.0" encoding="UTF-8"?>
<svg width="19px" height="19px" viewBox="0 0 19 19" version="1.1" xmlns="http://www.w3.org/2000/svg" xmlns:xlink="http://www.w3.org/1999/xlink">
    <!-- Generator: Sketch 55.2 (78181) - https://sketchapp.com -->
    <title>confirmed-circle-FFFFFF</title>
    <desc>Created with Sketch.</desc>
    <g id="Symbols" stroke="none" stroke-width="1" fill="none" fill-rule="evenodd">
        <g id="No-Amount-Due-Label" transform="translate(-18.000000, -31.000000)" fill="#FFFFFF" fill-rule="nonzero">
            <g id="confirmed-circle-FFFFFF" transform="translate(18.000000, 31.000000)">
                <path d="M5.53424015,8.83874296 C5.27757974,8.58208255 4.86050657,8.58208255 4.60384615,8.83874296 C4.34718574,9.09540338 4.34718574,9.51247655 4.60384615,9.76913696 L7.63564728,12.8009381 C7.76397749,12.9292683 7.92439024,12.9934334 8.10084428,12.9934334 C8.11688555,12.9934334 8.11688555,12.9934334 8.13292683,12.9934334 C8.30938086,12.9773921 8.4858349,12.8971857 8.6141651,12.7528143 L16.2016886,3.65741088 C16.4262664,3.38470919 16.3941839,2.96763602 16.1214822,2.72701689 C15.8487805,2.50243902 15.4317073,2.53452158 15.1910882,2.80722326 L8.05272045,11.3572233 L5.53424015,8.83874296 L5.53424015,8.83874296 Z" id="Path"></path>
                <path d="M14.2927767,1.49183865 C10.6032833,-0.818105066 5.87110694,-0.272701689 2.79118199,2.80722326 C-0.834146341,6.43255159 -0.834146341,12.3517824 2.79118199,15.9771107 C4.60384615,17.7897749 6.99399625,18.7041276 9.36810507,18.7041276 C11.7422139,18.7041276 14.132364,17.7897749 15.9450281,15.9771107 C19.0409944,12.8811445 19.5703565,8.13292683 17.2443715,4.4434334 C17.0518762,4.13864916 16.6508443,4.0424015 16.34606,4.23489681 C16.0412758,4.42739212 15.9450281,4.82842402 16.1375235,5.13320826 C18.1426829,8.30938086 17.6774859,12.3838649 15.0146341,15.0467167 C11.9026266,18.1587242 6.81754221,18.1587242 3.70553471,15.0467167 C0.593527205,11.9347092 0.593527205,6.84962477 3.70553471,3.73761726 C6.36838649,1.09080675 10.4268293,0.625609756 13.6030019,2.59868668 C13.9077861,2.79118199 14.308818,2.69493433 14.5013133,2.39015009 C14.6938086,2.08536585 14.597561,1.68433396 14.2927767,1.49183865 Z" id="Path"></path>
            </g>
        </g>
    </g>
</svg>