<?xml version="1.0" encoding="UTF-8"?>
<svg width="26px" height="26px" viewBox="0 0 26 26" version="1.1" xmlns="http://www.w3.org/2000/svg" xmlns:xlink="http://www.w3.org/1999/xlink">
    <!-- Generator: Sketch 55.2 (78181) - https://sketchapp.com -->
    <title>export-line</title>
    <desc>Created with Sketch.</desc>
    <g id="6-Check-Out" stroke="none" stroke-width="1" fill="none" fill-rule="evenodd">
        <g id="6B-Check-Out@2x" transform="translate(-555.000000, -1894.000000)" fill="#E9248C" fill-rule="nonzero">
            <g id="Coupon-Section" transform="translate(70.000000, 1891.000000)">
                <g id="export-line" transform="translate(485.000000, 3.000000)">
                    <path d="M24.695122,15.5195122 C24.1902439,15.5195122 23.795122,15.9146341 23.795122,16.4195122 L23.795122,23.7731707 L1.88780488,23.7731707 L1.88780488,1.88780488 L9.24146341,1.88780488 C9.74634146,1.88780488 10.1414634,1.49268293 10.1414634,0.987804878 C10.1414634,0.482926829 9.74634146,0.087804878 9.24146341,0.087804878 L0.987804878,0.087804878 C0.482926829,0.087804878 0.087804878,0.482926829 0.087804878,0.987804878 L0.087804878,24.6731707 C0.087804878,25.1780488 0.482926829,25.5731707 0.987804878,25.5731707 L24.6731707,25.5731707 C25.1780488,25.5731707 25.5731707,25.1780488 25.5731707,24.6731707 L25.5731707,16.4195122 C25.595122,15.9365854 25.1780488,15.5195122 24.695122,15.5195122 Z" id="Path"></path>
                    <path d="M25.5292683,0.658536585 C25.4195122,0.43902439 25.2439024,0.263414634 25.0243902,0.153658537 C25.0243902,0.153658537 25.0243902,0.153658537 25.002439,0.153658537 C24.8926829,0.109756098 24.7829268,0.087804878 24.6731707,0.087804878 L12.8195122,0.087804878 C12.3146341,0.087804878 11.9195122,0.482926829 11.9195122,0.987804878 C11.9195122,1.49268293 12.3146341,1.88780488 12.8195122,1.88780488 L22.5,1.88780488 L12.1829268,12.204878 C11.8317073,12.5560976 11.8317073,13.1268293 12.1829268,13.4780488 C12.3585366,13.6536585 12.5780488,13.7414634 12.8195122,13.7414634 C13.0390244,13.7414634 13.2804878,13.6536585 13.4560976,13.4780488 L23.7731707,3.16097561 L23.7731707,12.8414634 C23.7731707,13.3463415 24.1682927,13.7414634 24.6731707,13.7414634 C25.1780488,13.7414634 25.5731707,13.3463415 25.5731707,12.8414634 L25.5731707,0.987804878 C25.595122,0.87804878 25.5512195,0.768292683 25.5292683,0.658536585 Z" id="Path"></path>
                </g>
            </g>
        </g>
    </g>
</svg>