<?xml version="1.0" encoding="UTF-8"?>
<svg width="21px" height="40px" viewBox="0 0 21 40" version="1.1" xmlns="http://www.w3.org/2000/svg" xmlns:xlink="http://www.w3.org/1999/xlink">
    <!-- Generator: Sketch 55.2 (78181) - https://sketchapp.com -->
    <title>facebook-silhouette</title>
    <desc>Created with Sketch.</desc>
    <g id="Symbols" stroke="none" stroke-width="1" fill="none" fill-rule="evenodd">
        <g id="social-media-copy" transform="translate(0.000000, -8.000000)" fill="#E9248C" fill-rule="nonzero">
            <g id="facebook-silhouette" transform="translate(0.000000, 8.000000)">
                <path d="M20.2092016,0.00832266991 L15.1722565,0 C9.51342146,0 5.85643364,3.86379951 5.85643364,9.84405397 L5.85643364,14.382822 L0.792010622,14.382822 C0.354384345,14.382822 0,14.7481872 0,15.1988598 L0,21.7750174 C0,22.22569 0.354788432,22.5906391 0.792010622,22.5906391 L5.85643364,22.5906391 L5.85643364,39.1843783 C5.85643364,39.6350509 6.21081799,40 6.64844426,40 L13.2560757,40 C13.693702,40 14.0480864,39.6346348 14.0480864,39.1843783 L14.0480864,22.5906391 L19.969578,22.5906391 C20.4072043,22.5906391 20.7615886,22.22569 20.7615886,21.7750174 L20.7640132,15.1988598 C20.7640132,14.9824704 20.6803671,14.7752359 20.5320672,14.6220988 C20.3837672,14.4689616 20.1817237,14.382822 19.9715985,14.382822 L14.0480864,14.382822 L14.0480864,10.5352517 C14.0480864,8.68595445 14.4760145,7.74715729 16.8152745,7.74715729 L20.2083935,7.74590889 C20.6456157,7.74590889 21,7.38054368 21,6.93028724 L21,0.823944321 C21,0.374104013 20.6460197,0.0091549369 20.2092016,0.00832266991 Z" id="Path"></path>
            </g>
        </g>
    </g>
</svg>