<?xml version="1.0" encoding="UTF-8"?>
<svg width="26px" height="26px" viewBox="0 0 26 26" version="1.1" xmlns="http://www.w3.org/2000/svg" xmlns:xlink="http://www.w3.org/1999/xlink">
    <!-- Generator: Sketch 55.2 (78181) - https://sketchapp.com -->
    <title>favourite-checked-fill-E9248C</title>
    <desc>Created with Sketch.</desc>
    <g id="Symbols" stroke="none" stroke-width="1" fill="none" fill-rule="evenodd">
        <g id="Spaces-MY-BlueHeader" transform="translate(-260.000000, -15.000000)" fill="#425CBE">
            <g id="Spaces-MY-GreenHeader">
                <g id="favourite-checked-fill-E9248C" transform="translate(260.000000, 15.000000)">
                    <polygon id="Path-2" points="25 11 17 9 13 2 9 9 1 11 6 16 4 25 13 21 22 25 20 17"></polygon>
                    <path d="M25.6170732,10.9756098 C25.5512195,10.6682927 25.3097561,10.4268293 25.0243902,10.3170732 L17.6268293,7.83658537 L13.6756098,0.570731707 C13.5219512,0.263414634 13.1926829,0.087804878 12.8634146,0.087804878 C12.5341463,0.087804878 12.204878,0.263414634 12.0512195,0.570731707 L8.12195122,7.81463415 L0.702439024,10.0536585 C0.395121951,10.1414634 0.153658537,10.3829268 0.087804878,10.6902439 C-1.03389519e-15,10.997561 0.087804878,11.3268293 0.307317073,11.5682927 L5.1804878,16.902439 L3.16097561,24.4317073 C3.07317073,24.7609756 3.18292683,25.1341463 3.44634146,25.3536585 C3.7097561,25.595122 4.08292683,25.6609756 4.3902439,25.5292683 L12.8634146,22.1487805 L21.3365854,25.5292683 C21.4463415,25.5731707 21.5560976,25.595122 21.6878049,25.595122 C21.9073171,25.595122 22.1268293,25.5073171 22.302439,25.3536585 C22.5658537,25.1121951 22.6756098,24.7609756 22.5878049,24.4317073 L20.5682927,16.902439 L25.397561,11.8317073 C25.595122,11.5902439 25.6829268,11.2829268 25.6170732,10.9756098 L25.6170732,10.9756098 Z M18.8780488,16.002439 C18.6585366,16.2439024 18.5707317,16.5731707 18.6585366,16.8804878 L20.3487805,23.1146341 L13.2146341,20.304878 C13.104878,20.2609756 12.995122,20.2390244 12.8634146,20.2390244 C12.7536585,20.2390244 12.6219512,20.2609756 12.5121951,20.304878 L5.4,23.1365854 L7.0902439,16.902439 C7.17804878,16.595122 7.0902439,16.2658537 6.87073171,16.0463415 L2.63414634,11.3926829 L9.02195122,9.48292683 C9.26341463,9.41707317 9.46097561,9.26341463 9.57073171,9.04390244 L12.8634146,2.96341463 L16.1560976,9.04390244 C16.2658537,9.24146341 16.4414634,9.39512195 16.6829268,9.48292683 L23.0487805,11.6121951 L18.8780488,16.002439 Z" id="Shape" fill-rule="nonzero"></path>
                </g>
            </g>
        </g>
    </g>
</svg>