<?xml version="1.0" encoding="UTF-8"?>
<svg width="26px" height="26px" viewBox="0 0 26 26" version="1.1" xmlns="http://www.w3.org/2000/svg" xmlns:xlink="http://www.w3.org/1999/xlink">
    <!-- Generator: Sketch 55.2 (78181) - https://sketchapp.com -->
    <title>garbage-bin-4059C1</title>
    <desc>Created with Sketch.</desc>
    <g id="Symbols" stroke="none" stroke-width="1" fill="none" fill-rule="evenodd">
        <g id="garbage" fill="#4059C1" fill-rule="nonzero">
            <g id="garbage-bin-4059C1">
                <path d="M0.987804878,5.53170732 L1.97560976,5.53170732 L4.2804878,24.7829268 C4.32439024,25.2439024 4.7195122,25.5731707 5.1804878,25.5731707 L20.502439,25.5731707 C20.9634146,25.5731707 21.3365854,25.2439024 21.402439,24.7829268 L23.7073171,5.53170732 L24.695122,5.53170732 C25.2,5.53170732 25.595122,5.13658537 25.595122,4.63170732 C25.595122,4.12682927 25.2,3.73170732 24.695122,3.73170732 L22.895122,3.73170732 L17.802439,3.73170732 L17.802439,0.987804878 C17.802439,0.482926829 17.4073171,0.087804878 16.902439,0.087804878 L8.7804878,0.087804878 C8.27560976,0.087804878 7.8804878,0.482926829 7.8804878,0.987804878 L7.8804878,3.73170732 L2.78780488,3.73170732 L0.987804878,3.73170732 C0.482926829,3.73170732 0.087804878,4.12682927 0.087804878,4.63170732 C0.087804878,5.13658537 0.504878049,5.53170732 0.987804878,5.53170732 Z M9.6804878,1.88780488 L16.002439,1.88780488 L16.002439,3.73170732 L9.6804878,3.73170732 L9.6804878,1.88780488 L9.6804878,1.88780488 Z M21.8853659,5.53170732 L19.7121951,23.795122 L5.97073171,23.795122 L3.79756098,5.53170732 L21.8853659,5.53170732 Z" id="Shape"></path>
                <path d="M9.85609756,21.0512195 C10.3609756,21.0512195 10.7560976,20.6560976 10.7560976,20.1512195 L10.7560976,9.37317073 C10.7560976,8.86829268 10.3609756,8.47317073 9.85609756,8.47317073 C9.35121951,8.47317073 8.95609756,8.86829268 8.95609756,9.37317073 L8.95609756,20.1512195 C8.95609756,20.6560976 9.35121951,21.0512195 9.85609756,21.0512195 Z" id="Path"></path>
                <path d="M15.8268293,21.0512195 C16.3317073,21.0512195 16.7268293,20.6560976 16.7268293,20.1512195 L16.7268293,9.37317073 C16.7268293,8.86829268 16.3317073,8.47317073 15.8268293,8.47317073 C15.3219512,8.47317073 14.9268293,8.86829268 14.9268293,9.37317073 L14.9268293,20.1512195 C14.9268293,20.6560976 15.3439024,21.0512195 15.8268293,21.0512195 Z" id="Path"></path>
            </g>
        </g>
    </g>
</svg>