<?xml version="1.0" encoding="UTF-8"?>
<svg width="26px" height="26px" viewBox="0 0 26 26" version="1.1" xmlns="http://www.w3.org/2000/svg" xmlns:xlink="http://www.w3.org/1999/xlink">
    <!-- Generator: Sketch 55.2 (78181) - https://sketchapp.com -->
    <title>help-4059C1</title>
    <desc>Created with Sketch.</desc>
    <g id="Symbols" stroke="none" stroke-width="1" fill="none" fill-rule="evenodd">
        <g id="Navbar-Homepage-Grey" transform="translate(-1072.000000, -33.000000)" fill="#4059C1" fill-rule="nonzero">
            <g id="help-4059C1" transform="translate(1072.000000, 33.000000)">
                <circle id="Oval" cx="12.7616667" cy="18.525" r="1.235"></circle>
                <path d="M12.7616667,0 C5.70865242,0 0,5.70770527 0,12.7616667 C0,19.8146809 5.70770527,25.5233333 12.7616667,25.5233333 C19.8146809,25.5233333 25.5233333,19.8156281 25.5233333,12.7616667 C25.5233333,5.70865242 19.8156281,0 12.7616667,0 Z M12.7616667,23.5293229 C6.81069213,23.5293229 1.99401042,18.7134388 1.99401042,12.7616667 C1.99401042,6.81069213 6.80989452,1.99401042 12.7616667,1.99401042 C18.7126412,1.99401042 23.5293229,6.80989452 23.5293229,12.7616667 C23.5293229,18.7126412 18.7134388,23.5293229 12.7616667,23.5293229 Z" id="Shape"></path>
                <path d="M13.1733333,6.58666667 C10.9034033,6.58666667 9.05666667,8.27511162 9.05666667,10.3504762 C9.05666667,10.8701642 9.51742458,11.2914286 10.0858333,11.2914286 C10.6542421,11.2914286 11.115,10.8701642 11.115,10.3504762 C11.115,9.3127939 12.0383683,8.46857143 13.1733333,8.46857143 C14.3082983,8.46857143 15.2316667,9.3127939 15.2316667,10.3504762 C15.2316667,11.3881585 14.3082983,12.232381 13.1733333,12.232381 C12.6049246,12.232381 12.1441667,12.6536453 12.1441667,13.1733333 L12.1441667,15.5257143 C12.1441667,16.0454023 12.6049246,16.4666667 13.1733333,16.4666667 C13.7417421,16.4666667 14.2025,16.0454023 14.2025,15.5257143 L14.2025,13.9952082 C15.9760629,13.5763432 17.29,12.101071 17.29,10.3504762 C17.29,8.27511162 15.4432633,6.58666667 13.1733333,6.58666667 Z" id="Path"></path>
            </g>
        </g>
    </g>
</svg>