<?xml version="1.0" encoding="UTF-8"?>
<svg width="26px" height="26px" viewBox="0 0 26 26" version="1.1" xmlns="http://www.w3.org/2000/svg" xmlns:xlink="http://www.w3.org/1999/xlink">
    <!-- Generator: Sketch 55.2 (78181) - https://sketchapp.com -->
    <title>info-circle-E9248C</title>
    <desc>Created with Sketch.</desc>
    <g id="Symbols" stroke="none" stroke-width="1" fill="none" fill-rule="evenodd">
        <g id="Blue-Availability-Notice-Box-Copy" transform="translate(-29.000000, -27.000000)" fill="#E9248C" fill-rule="nonzero">
            <g id="info-circle-E9248C" transform="translate(29.000000, 27.000000)">
                <g id="info">
                    <path d="M12.8414634,25.595122 C19.8658537,25.595122 25.5731707,19.8878049 25.5731707,12.8634146 C25.5731707,5.83902439 19.8658537,0.131707317 12.8414634,0.131707317 C5.81707317,0.131707317 0.087804878,5.83902439 0.087804878,12.8634146 C0.087804878,19.8878049 5.81707317,25.595122 12.8414634,25.595122 Z M12.8414634,1.88780488 C18.8780488,1.88780488 23.795122,6.80487805 23.795122,12.8414634 C23.795122,18.8780488 18.8780488,23.795122 12.8414634,23.795122 C6.80487805,23.795122 1.88780488,18.8780488 1.88780488,12.8414634 C1.88780488,6.80487805 6.80487805,1.88780488 12.8414634,1.88780488 Z" id="Shape"></path>
                    <path d="M10.7121951,18.4609756 C10.2073171,18.4609756 9.81219512,18.8560976 9.81219512,19.3609756 C9.81219512,19.8658537 10.2073171,20.2609756 10.7121951,20.2609756 L16.6170732,20.2609756 C17.1219512,20.2609756 17.5170732,19.8658537 17.5170732,19.3609756 C17.5170732,18.8560976 17.1219512,18.4609756 16.6170732,18.4609756 L14.5536585,18.4609756 L14.5536585,10.5365854 C14.5536585,10.0317073 14.1585366,9.63658537 13.6536585,9.63658537 L10.7121951,9.63658537 C10.2073171,9.63658537 9.81219512,10.0317073 9.81219512,10.5365854 C9.81219512,11.0414634 10.2073171,11.4365854 10.7121951,11.4365854 L12.7756098,11.4365854 L12.7756098,18.4609756 L10.7121951,18.4609756 Z" id="Path"></path>
                    <circle id="Oval" cx="12.4463415" cy="6.69512195" r="1.44878049"></circle>
                </g>
            </g>
        </g>
    </g>
</svg>