<?xml version="1.0" encoding="UTF-8"?>
<svg width="50px" height="50px" viewBox="0 0 50 50" version="1.1" xmlns="http://www.w3.org/2000/svg" xmlns:xlink="http://www.w3.org/1999/xlink">
    <!-- Generator: Sketch 55.2 (78181) - https://sketchapp.com -->
    <title>instagram-circle</title>
    <desc>Created with Sketch.</desc>
    <g id="Symbols" stroke="none" stroke-width="1" fill="none" fill-rule="evenodd">
        <g id="social-media" transform="translate(-80.000000, -3.000000)" fill="#DF1246" fill-rule="nonzero">
            <g id="instagram-circle" transform="translate(80.000000, 3.000000)">
                <path d="M30,25.5 C30,27.9853316 27.9853316,30 25.5,30 C23.0146684,30 21,27.9853316 21,25.5 C21,23.0146684 23.0146684,21 25.5,21 C27.9853316,21 30,23.0146684 30,25.5 Z" id="Path"></path>
                <path d="M36.4352787,17.2269258 C36.2105084,16.6178468 35.8519197,16.0665446 35.3859779,15.6140221 C34.9334554,15.1480803 34.3825259,14.7894916 33.7730742,14.5647213 C33.2788033,14.3727534 32.5362786,14.1442556 31.1686466,14.0820057 C29.6891886,14.0145374 29.245612,14 25.5001864,14 C21.754388,14 21.3108114,14.0141647 19.8317261,14.081633 C18.4640941,14.1442556 17.7211967,14.3727534 17.2272986,14.5647213 C16.6178468,14.7894916 16.0665446,15.1480803 15.6143948,15.6140221 C15.148453,16.0665446 14.7898644,16.6174741 14.5647213,17.2269258 C14.3727534,17.7211967 14.1442556,18.4640941 14.0820057,19.8317261 C14.0145374,21.3108114 14,21.754388 14,25.5001864 C14,29.245612 14.0145374,29.6891886 14.0820057,31.1686466 C14.1442556,32.5362786 14.3727534,33.2788033 14.5647213,33.7730743 C14.7898644,34.382526 15.1480803,34.9334554 15.6140221,35.3859779 C16.0665446,35.8519197 16.617474,36.2105085 17.2269257,36.4352787 C17.7211967,36.6276194 18.4640941,36.8561172 19.8317261,36.918367 C21.3108114,36.9858354 21.7540152,37 25.4998136,37 C29.2459848,37 29.6895613,36.9858354 31.1682739,36.918367 C32.5359059,36.8561172 33.2788033,36.6276194 33.7730742,36.4352787 C34.9964507,35.963373 35.963373,34.9964507 36.4352787,33.7730743 C36.6272466,33.2788033 36.8557444,32.5362786 36.918367,31.1686466 C36.9858353,29.6891886 37,29.245612 37,25.5001864 C37,21.754388 36.9858353,21.3108114 36.918367,19.8317261 C36.8561172,18.4640941 36.6276194,17.7211967 36.4352787,17.2269258 L36.4352787,17.2269258 Z M25.5001864,32.7028994 C21.5217899,32.7028994 18.2967279,29.4782101 18.2967279,25.4998136 C18.2967279,21.5214172 21.5217899,18.2967279 25.5001864,18.2967279 C29.4782101,18.2967279 32.7032721,21.5214172 32.7032721,25.4998136 C32.7032721,29.4782101 29.4782101,32.7028994 25.5001864,32.7028994 Z M32.9880557,19.6952985 C32.0584088,19.6952985 31.3047015,18.9415912 31.3047015,18.0119443 C31.3047015,17.0822974 32.0584088,16.3285902 32.9880557,16.3285902 C33.9177026,16.3285902 34.6714098,17.0822974 34.6714098,18.0119443 C34.6710371,18.9415912 33.9177026,19.6952985 32.9880557,19.6952985 Z" id="Shape"></path>
                <path d="M25,0 C11.1949921,0 0,11.1949921 0,25 C0,38.8050079 11.1949921,50 25,50 C38.8050079,50 50,38.8050079 50,25 C50,11.1949921 38.8050079,0 25,0 Z M39.2688751,30.9185028 C39.1994477,32.4466705 38.9564514,33.4899902 38.6016846,34.4032287 C37.8559112,36.3315582 36.3315582,37.8559112 34.4032287,38.6016846 C33.4903717,38.9564514 32.4466705,39.1990662 30.9188843,39.2688751 C29.3880463,39.3386841 28.8990021,39.3554688 25.0003814,39.3554688 C21.1013794,39.3554688 20.6127167,39.3386841 19.0814972,39.2688751 C17.5537109,39.1990662 16.5100098,38.9564514 15.5971527,38.6016846 C14.6389008,38.2411957 13.7714386,37.6762391 13.0542755,36.9457245 C12.3241425,36.2289429 11.7591857,35.3610992 11.3986969,34.4032287 C11.0439301,33.4903717 10.8009338,32.4466705 10.7315063,30.9188843 C10.6609345,29.3876648 10.6445313,28.8986206 10.6445313,25 C10.6445313,21.1013794 10.6609345,20.6123352 10.7311249,19.0814972 C10.8005523,17.5533295 11.0431671,16.5100098 11.397934,15.5967713 C11.7584229,14.6389008 12.3237609,13.7710571 13.0542755,13.0542755 C13.7710571,12.3237609 14.6389008,11.7588043 15.5967713,11.3983154 C16.5100098,11.0435486 17.5533295,10.8009338 19.0814972,10.7311249 C20.6123352,10.6613159 21.1013794,10.6445313 25,10.6445313 C28.8986206,10.6445313 29.3876648,10.6613159 30.9185028,10.7315063 C32.4466705,10.8009338 33.4899902,11.0435486 34.4032287,11.397934 C35.3610992,11.7584229 36.2289429,12.3237609 36.946106,13.0542755 C37.6762391,13.7714386 38.2415771,14.6389008 38.6016846,15.5967713 C38.9568329,16.5100098 39.1994477,17.5533295 39.2692566,19.0814972 C39.3390655,20.6123352 39.3554687,21.1013794 39.3554687,25 C39.3554687,28.8986206 39.3390655,29.3876648 39.2688751,30.9185028 L39.2688751,30.9185028 Z" id="Shape"></path>
            </g>
        </g>
    </g>
</svg>