<?xml version="1.0" encoding="UTF-8"?>
<svg width="40px" height="40px" viewBox="0 0 40 40" version="1.1" xmlns="http://www.w3.org/2000/svg" xmlns:xlink="http://www.w3.org/1999/xlink">
    <!-- Generator: Sketch 55.2 (78181) - https://sketchapp.com -->
    <title>instagram-silhouette</title>
    <desc>Created with Sketch.</desc>
    <g id="Symbols" stroke="none" stroke-width="1" fill="none" fill-rule="evenodd">
        <g id="social-media-copy" transform="translate(-136.000000, -8.000000)" fill="#E9248C" fill-rule="nonzero">
            <g id="instagram-silhouette" transform="translate(136.000000, 8.000000)">
                <path d="M28.3807031,0 L11.619375,0 C5.21242187,0 0,5.21242187 0,11.619375 L0,28.380625 C0,34.7875781 5.21242187,40 11.619375,40 L28.380625,40 C34.7875781,40 40,34.7875781 40,28.3807031 L40,11.619375 C40,5.21242187 34.7875781,0 28.3807031,0 Z M36.875,28.380625 C36.875,33.0644531 33.0644531,36.875 28.3807031,36.875 L11.619375,36.875 C6.93554687,36.875 3.125,33.0644531 3.125,28.3807031 L3.125,11.619375 C3.125,6.93554687 6.93554687,3.125 11.619375,3.125 L28.380625,3.125 C33.0644531,3.125 36.875,6.93554687 36.875,11.619375 L36.875,28.380625 Z" id="Shape"></path>
                <path d="M20,9 C13.9345362,9 9,13.9345362 9,20 C9,26.0654638 13.9345362,31 20,31 C26.0654638,31 31,26.0654638 31,20 C31,13.9345362 26.0654638,9 20,9 Z M20,27.8115942 C15.6927029,27.8115942 12.1884058,24.3072971 12.1884058,20 C12.1884058,15.6927029 15.6927029,12.1884058 20,12.1884058 C24.3072971,12.1884058 27.8115942,15.6927029 27.8115942,20 C27.8115942,24.3072971 24.3072971,27.8115942 20,27.8115942 Z" id="Shape"></path>
                <circle id="Oval" cx="30.5" cy="9.5" r="1.5"></circle>
            </g>
        </g>
    </g>
</svg>