<?xml version="1.0" encoding="UTF-8"?>
<svg width="26px" height="26px" viewBox="0 0 26 26" version="1.1" xmlns="http://www.w3.org/2000/svg" xmlns:xlink="http://www.w3.org/1999/xlink">
    <!-- Generator: Sketch 55.2 (78181) - https://sketchapp.com -->
    <title>left-arrow-4059C1</title>
    <desc>Created with Sketch.</desc>
    <g id="Symbols" stroke="none" stroke-width="1" fill="none" fill-rule="evenodd">
        <g id="Navbar-Booking-White" transform="translate(-1208.000000, -34.000000)" fill="#4059C1" fill-rule="nonzero">
            <g id="left-arrow-4059C1" transform="translate(1221.000000, 47.000000) scale(-1, 1) rotate(90.000000) translate(-1221.000000, -47.000000) translate(1208.000000, 34.000000)">
                <path d="M25.2479851,12.204878 L13.3943266,0.351219512 C13.240668,0.197560976 12.9992046,0.087804878 12.7577412,0.087804878 C12.5162778,0.087804878 12.2748144,0.197560976 12.1211558,0.351219512 L0.267497313,12.204878 C-0.0837221995,12.5560976 -0.0837221995,13.1268293 0.267497313,13.4780488 C0.443107069,13.6536585 0.662619264,13.7414634 0.904082679,13.7414634 C1.14554609,13.7414634 1.36505829,13.6536585 1.54066804,13.4780488 L11.8577412,3.16097561 L11.8577412,24.695122 C11.8577412,25.2 12.2528632,25.595122 12.7577412,25.595122 C13.2626193,25.595122 13.6577412,25.2 13.6577412,24.695122 L13.6577412,3.16097561 L23.9748144,13.4780488 C24.3260339,13.8292683 24.8967656,13.8292683 25.2479851,13.4780488 C25.5992046,13.1268293 25.5772534,12.5560976 25.2479851,12.204878 Z" id="Path"></path>
            </g>
        </g>
    </g>
</svg>