<?xml version="1.0" encoding="UTF-8"?>
<svg width="100px" height="17px" viewBox="0 0 100 17" version="1.1" xmlns="http://www.w3.org/2000/svg" xmlns:xlink="http://www.w3.org/1999/xlink">
    <!-- Generator: Sketch 55.2 (78181) - https://sketchapp.com -->
    <title>Invade-logo-CF0072</title>
    <desc>Created with Sketch.</desc>
    <g id="Symbols" stroke="none" stroke-width="1" fill="none" fill-rule="evenodd">
        <g id="component/header/customer" transform="translate(-72.000000, -22.000000)" fill="#CF0072">
            <g id="Header">
                <g id="Invade-logo-CF0072" transform="translate(72.000000, 22.000000)">
                    <polygon id="Fill-3" points="0 16.6979289 2.25410448 16.6979289 2.25410448 0.000151111111 0 0.000151111111"></polygon>
                    <path d="M69.9988806,11.8679267 L69.9988806,1.94370444 L73.8742537,1.94370444 C75.6380597,1.94370444 76.916791,2.51603778 77.7108209,3.65994889 C77.7649254,3.73814889 77.8126866,3.82352667 77.8630597,3.90588222 L79.433209,2.31619333 C78.2067164,0.776371111 76.5100746,3.77777778e-05 74.3343284,3.77777778e-05 L67.7421642,3.77777778e-05 L67.7421642,14.1523489 L69.9988806,11.8679267 Z" id="Fill-4"></path>
                    <path d="M78.6720522,6.04799556 C78.8224254,6.77295111 78.9022761,7.57988444 78.9022761,8.47975111 C78.9022761,9.01770667 78.8470522,9.60137333 78.7373507,10.2303733 C78.5470522,11.2836178 78.2362313,12.1475956 77.8045149,12.8219289 C77.2627239,13.66324 76.5672015,14.2314178 75.718694,14.52684 C75.2429478,14.6858844 74.6351119,14.7655956 73.896306,14.7655956 L70.0616045,14.7655956 L68.1530224,16.6979289 L74.3123507,16.6979289 C77.1041418,16.6979289 79.0724254,15.4323733 80.2175746,12.9012622 C80.8675746,11.4691067 81.1925746,9.86657333 81.1925746,8.09328444 C81.1925746,6.62032889 80.963097,5.32001778 80.5104851,4.18706222 L78.6720522,6.04799556 Z" id="Fill-6"></path>
                    <polygon id="Fill-8" points="15.191194 6.60393333 19.7333582 13.9369778 19.7333582 10.0681556 15.191194 2.61724444"></polygon>
                    <polygon id="Fill-10" points="21.7701866 0 21.7507836 16.6981556 24.0045149 16.6981556 24.0045149 0"></polygon>
                    <polygon id="Fill-12" points="13.1703731 0 10.9162687 0 10.9162687 16.6981556 13.1431343 16.6981556"></polygon>
                    <polygon id="Fill-14" points="92.6731343 2.28948444 99.8119403 2.28948444 99.8119403 0.00732888889 92.6731343 0.00732888889"></polygon>
                    <polygon id="Fill-16" points="92.6731343 9.47330667 99.8119403 9.47330667 99.8119403 7.19115111 92.6731343 7.19115111"></polygon>
                    <polygon id="Fill-17" points="92.6731343 16.6767733 99.8119403 16.6767733 99.8119403 14.3946178 92.6731343 14.3946178"></polygon>
                    <polygon id="Fill-18" points="88.1477612 16.6983067 90.4018657 16.6983067 90.4018657 0.000151111111 88.1477612 0.000151111111"></polygon>
                    <polygon id="Fill-19" points="53.6933955 0.0105777778 56.0657836 0.0105777778 62.0661567 16.6962667 59.5926493 16.6962667"></polygon>
                    <polygon id="Fill-20" points="55.1724254 9.85508889 50.121306 9.8498 47.6675746 16.6981556 50.1787687 16.6981556 51.8194403 11.6967556 55.840709 11.6967556"></polygon>
                    <polygon id="Fill-21" points="38.9531716 16.6963422 36.4800373 16.6963422 42.4807836 0.00838666667 44.8531716 0.00838666667"></polygon>
                    <polygon id="Fill-22" points="36.5575746 10.9702889 32.6109328 0.00868888889 30.2385448 0.00868888889 35.2881716 14.2898222"></polygon>
                </g>
            </g>
        </g>
    </g>
</svg>