<?xml version="1.0" encoding="UTF-8"?>
<svg width="20px" height="20px" viewBox="0 0 20 20" version="1.1" xmlns="http://www.w3.org/2000/svg" xmlns:xlink="http://www.w3.org/1999/xlink">
    <!-- Generator: Sketch 55.2 (78181) - https://sketchapp.com -->
    <title>minus-circle-000000</title>
    <desc>Created with Sketch.</desc>
    <g id="Symbols" stroke="none" stroke-width="1" fill="none" fill-rule="evenodd">
        <g id="minus-border" fill="#000000" fill-rule="nonzero">
            <g id="minus-circle-000000">
                <path d="M10,0 C4.47265625,0 0,4.47265625 0,10 C0,15.5273438 4.47265625,20 10,20 C15.5273437,20 20,15.5273438 20,10 C20,4.47265625 15.5273437,0 10,0 Z M10,18.4375 C5.3359375,18.4375 1.5625,14.6640625 1.5625,10 C1.5625,5.3359375 5.3359375,1.5625 10,1.5625 C14.6640625,1.5625 18.4375,5.3359375 18.4375,10 C18.4375,14.6640625 14.6640625,18.4375 10,18.4375 Z" id="Shape"></path>
                <path d="M15.7142857,9.96665497 L15.7142857,10.033345 C15.7142857,10.4089154 15.375078,10.7142857 14.9578915,10.7142857 L5.75639426,10.7142857 C5.33920774,10.7142857 5,10.4089154 5,10.033345 L5,9.96665497 C5,9.59108459 5.33920774,9.28571429 5.75639426,9.28571429 L14.9539925,9.28571429 C15.375078,9.28571429 15.7142857,9.59108459 15.7142857,9.96665497 Z" id="Path"></path>
            </g>
        </g>
    </g>
</svg>