<?xml version="1.0" encoding="UTF-8"?>
<svg width="43px" height="43px" viewBox="0 0 43 43" version="1.1" xmlns="http://www.w3.org/2000/svg" xmlns:xlink="http://www.w3.org/1999/xlink">
    <!-- Generator: Sketch 55.2 (78181) - https://sketchapp.com -->
    <title>monitor-circle</title>
    <desc>Created with Sketch.</desc>
    <g id="3-Space-Details" stroke="none" stroke-width="1" fill="none" fill-rule="evenodd">
        <g id="3-Space-Details@2x" transform="translate(-633.000000, -1160.000000)">
            <g id="Group" transform="translate(631.000000, 1107.000000)">
                <g id="monitor-circle" transform="translate(2.000000, 53.000000)">
                    <circle id="Oval" fill="#E9248C" cx="21.105" cy="21.105" r="21.105"></circle>
                    <path d="M33.1086145,10.08 L9.10138554,10.08 C8.59012048,10.08 8.19,10.479 8.19,10.9888333 L8.19,22.449 L8.19,27.1261667 C8.19,27.636 8.59012048,28.035 9.10138554,28.035 L20.1936145,28.035 L20.1936145,32.2023333 L15.1031928,32.2023333 C14.5919277,32.2023333 14.1918072,32.6013333 14.1918072,33.1111667 C14.1918072,33.621 14.5919277,34.02 15.1031928,34.02 L27.1068072,34.02 C27.6180723,34.02 28.0181928,33.621 28.0181928,33.1111667 C28.0181928,32.6013333 27.6180723,32.2023333 27.1068072,32.2023333 L22.0163855,32.2023333 L22.0163855,28.035 L33.1086145,28.035 C33.6198795,28.035 34.02,27.636 34.02,27.1261667 L34.02,22.449 L34.02,10.9888333 C34.02,10.479 33.6198795,10.08 33.1086145,10.08 Z M32.13,26.46 L10.08,26.46 L10.08,23.31 L32.13,23.31 L32.13,26.46 Z M32.13,21.42 L10.08,21.42 L10.08,11.97 L32.13,11.97 L32.13,21.42 Z" id="Shape" fill="#FFFFFF" fill-rule="nonzero"></path>
                </g>
            </g>
        </g>
    </g>
</svg>