<?xml version="1.0" encoding="UTF-8"?>
<svg width="26px" height="26px" viewBox="0 0 26 26" version="1.1" xmlns="http://www.w3.org/2000/svg" xmlns:xlink="http://www.w3.org/1999/xlink">
    <!-- Generator: Sketch 55.2 (78181) - https://sketchapp.com -->
    <title>plus-fill-3E56C4</title>
    <desc>Created with Sketch.</desc>
    <defs>
        <polygon id="path-1" points="1.015625e-05 0 26 0 26 25.9999949 1.015625e-05 25.9999949"></polygon>
    </defs>
    <g id="Symbols" stroke="none" stroke-width="1" fill="none" fill-rule="evenodd">
        <g id="Blue-Electrical-Info-FIll-Copy-2" transform="translate(-595.000000, -67.000000)">
            <g id="plus-fill-3E56C4" transform="translate(595.000000, 67.000000)">
                <g id="Group-3">
                    <mask id="mask-2" fill="white">
                        <use xlink:href="#path-1"></use>
                    </mask>
                    <g id="Clip-2"></g>
                    <path d="M19.9773539,13.045698 C19.9773539,13.5890574 19.535557,14.0308543 18.9921977,14.0308543 L14.0308187,14.0308543 L14.0308187,18.9921824 C14.0308187,19.5355418 13.5890727,19.9773387 13.0457133,19.9773387 L12.9492289,19.9773387 C12.4058695,19.9773387 11.9640727,19.5355418 11.9640727,18.9921824 L11.9640727,14.0308543 L7.00782266,14.0308543 C6.46446328,14.0308543 6.02266641,13.5890574 6.02266641,13.045698 L6.02266641,12.9492137 C6.02266641,12.4058543 6.46446328,11.9640574 7.00782266,11.9640574 L11.9640727,11.9640574 L11.9640727,7.00780742 C11.9640727,6.46444805 12.4058695,6.02265117 12.9492289,6.02265117 L13.0457133,6.02265117 C13.5890727,6.02265117 14.0308187,6.46444805 14.0308187,7.00780742 L14.0308187,11.9640574 L18.9871195,11.9640574 C19.535557,11.9640574 19.9773539,12.4058543 19.9773539,12.9492137 L19.9773539,13.045698 Z M13.0000102,-5.078125e-06 C5.81446328,-5.078125e-06 1.015625e-05,5.81444805 1.015625e-05,12.9999949 C1.015625e-05,20.1855418 5.81446328,25.9999949 13.0000102,25.9999949 C20.185557,25.9999949 26.0000102,20.1855418 26.0000102,12.9999949 C26.0000102,5.81444805 20.185557,-5.078125e-06 13.0000102,-5.078125e-06 L13.0000102,-5.078125e-06 Z" id="Fill-1" fill="#3E56C4" mask="url(#mask-2)"></path>
                </g>
            </g>
        </g>
    </g>
</svg>