<?xml version="1.0" encoding="UTF-8"?>
<svg width="26px" height="26px" viewBox="0 0 26 26" version="1.1" xmlns="http://www.w3.org/2000/svg" xmlns:xlink="http://www.w3.org/1999/xlink">
    <!-- Generator: Sketch 55.2 (78181) - https://sketchapp.com -->
    <title>plus-line-3E56C4</title>
    <desc>Created with Sketch.</desc>
    <g id="Symbols" stroke="none" stroke-width="1" fill="none" fill-rule="evenodd">
        <g id="Add-to-Calendar" fill="#3E56C4" fill-rule="nonzero">
            <g id="plus-line-3E56C4">
                <path d="M12.8414634,0.109756098 C5.81707317,0.109756098 0.087804878,5.81707317 0.087804878,12.8414634 C0.087804878,19.8658537 5.79512195,25.5731707 12.8414634,25.5731707 C19.8658537,25.5731707 25.5731707,19.8658537 25.5731707,12.8414634 C25.5731707,5.81707317 19.8658537,0.109756098 12.8414634,0.109756098 Z M12.8414634,23.795122 C6.80487805,23.795122 1.88780488,18.8780488 1.88780488,12.8414634 C1.88780488,6.80487805 6.80487805,1.88780488 12.8414634,1.88780488 C18.8780488,1.88780488 23.795122,6.80487805 23.795122,12.8414634 C23.795122,18.8780488 18.8780488,23.795122 12.8414634,23.795122 Z" id="Shape"></path>
                <path d="M18.702439,11.8317073 L13.7414634,11.8317073 L13.7414634,6.84878049 C13.7414634,6.34390244 13.3463415,5.94878049 12.8414634,5.94878049 C12.3365854,5.94878049 11.9414634,6.34390244 11.9414634,6.84878049 L11.9414634,11.8097561 L6.9804878,11.8097561 C6.47560976,11.8097561 6.0804878,12.204878 6.0804878,12.7097561 C6.0804878,13.2146341 6.47560976,13.6097561 6.9804878,13.6097561 L11.9414634,13.6097561 L11.9414634,18.5707317 C11.9414634,19.0756098 12.3365854,19.4707317 12.8414634,19.4707317 C13.3463415,19.4707317 13.7414634,19.0756098 13.7414634,18.5707317 L13.7414634,13.6097561 L18.702439,13.6097561 C19.2073171,13.6097561 19.602439,13.2146341 19.602439,12.7097561 C19.602439,12.204878 19.2073171,11.8317073 18.702439,11.8317073 L18.702439,11.8317073 Z" id="Path"></path>
            </g>
        </g>
    </g>
</svg>