<?xml version="1.0" encoding="UTF-8"?>
<svg width="23px" height="23px" viewBox="0 0 23 23" version="1.1" xmlns="http://www.w3.org/2000/svg" xmlns:xlink="http://www.w3.org/1999/xlink">
    <!-- Generator: Sketch 55.2 (78181) - https://sketchapp.com -->
    <title>prohibition-line-FFFFFF</title>
    <desc>Created with Sketch.</desc>
    <g id="16-Booking-Summary" stroke="none" stroke-width="1" fill="none" fill-rule="evenodd">
        <g id="16A-Booking-Summary@2x" transform="translate(-1117.000000, -837.000000)" fill="#FFFFFF" fill-rule="nonzero">
            <g id="Amount-Due-Label" transform="translate(959.000000, 801.000000)">
                <g id="prohibition-line-FFFFFF" transform="translate(158.000000, 36.000000)">
                    <path d="M11.3795122,0.097260788 C5.15482176,0.097260788 0.097260788,5.15482176 0.097260788,11.3795122 C0.097260788,14.4724053 1.34219887,17.2735159 3.36522326,19.3159925 C3.36522326,19.3159925 3.38467542,19.3354447 3.38467542,19.3548968 C3.38467542,19.3548968 3.40412758,19.3548968 3.40412758,19.374349 C5.44660413,21.4168255 8.26716698,22.6812158 11.3795122,22.6812158 C17.6042026,22.6812158 22.6617636,17.6236548 22.6617636,11.3989644 C22.6617636,5.17427392 17.6042026,0.097260788 11.3795122,0.097260788 Z M1.67288555,11.3795122 C1.67288555,6.03016886 6.03016886,1.69233771 11.3795122,1.69233771 C13.7721276,1.69233771 15.9507692,2.5676848 17.6431069,3.98769231 L3.98769231,17.6431069 C2.54823265,15.9507692 1.67288555,13.7721276 1.67288555,11.3795122 Z M11.3795122,21.0861388 C8.98689681,21.0861388 6.788803,20.2107917 5.09646529,18.7713321 L18.7518799,5.11591745 C20.1913396,6.80825516 21.0667516,9.00634897 21.0667516,11.3989644 C21.0861388,16.7288555 16.7288555,21.0861388 11.3795122,21.0861388 Z" id="Shape"></path>
                </g>
            </g>
        </g>
    </g>
</svg>