<?xml version="1.0" encoding="UTF-8"?>
<svg width="8px" height="14px" viewBox="0 0 8 14" version="1.1" xmlns="http://www.w3.org/2000/svg" xmlns:xlink="http://www.w3.org/1999/xlink">
    <!-- Generator: Sketch 55.2 (78181) - https://sketchapp.com -->
    <title>right-arrow@2x</title>
    <desc>Created with Sketch.</desc>
    <g id="Symbols" stroke="none" stroke-width="1" fill="none" fill-rule="evenodd">
        <g id="right-arrow" fill="#fff">
            <g id="left-arrow" transform="translate(4.000000, 7.000000) rotate(180.000000) translate(-4.000000, -7.000000) ">
                <g>
                    <path d="M2.68829425,7.00295935 L7.78256305,1.76536585 C7.92283424,1.62149593 8,1.42913821 8,1.22403252 C8,1.01881301 7.92283424,0.826569106 7.78256305,0.682471545 L7.33617517,0.223772358 C7.1961254,0.0794471545 7.00891263,0 6.8094109,0 C6.60990918,0 6.42291783,0.0794471545 6.28275735,0.223772358 L0.217218496,6.45957724 C0.07650446,6.60413008 -0.000550590295,6.79728455 0,7.00261789 C-0.000550590295,7.20886179 0.0763937487,7.40178862 0.217218496,7.54645528 L6.27711107,13.7762276 C6.41727155,13.9205528 6.6042629,14 6.80387534,14 C7.00337706,14 7.19036842,13.9205528 7.33063961,13.7762276 L7.77691677,13.3175285 C8.06731246,13.0189756 8.06731246,12.5329593 7.77691677,12.2345203 L2.68829425,7.00295935 Z" fill-rule="nonzero"></path>
                </g>
            </g>
        </g>
    </g>
</svg>