<?xml version="1.0" encoding="UTF-8"?>
<svg width="17px" height="26px" viewBox="0 0 17 26" version="1.1" xmlns="http://www.w3.org/2000/svg" xmlns:xlink="http://www.w3.org/1999/xlink">
    <!-- Generator: Sketch 55.2 (78181) - https://sketchapp.com -->
    <title>share-line</title>
    <desc>Created with Sketch.</desc>
    <g id="3-Space-Details" stroke="none" stroke-width="1" fill="none" fill-rule="evenodd">
        <g id="3-Space-Details@2x" transform="translate(-1034.000000, -624.000000)" fill="#425CBE" fill-rule="nonzero">
            <g id="Navbar-Copy-3" transform="translate(-1.000000, 591.000000)">
                <g id="share-line" transform="translate(1035.000000, 33.000000)">
                    <path d="M3.55609756,16.2439024 C4.17073171,16.2439024 4.74146341,16.0682927 5.24634146,15.7829268 L9.94390244,20.4804878 C9.65853659,20.9853659 9.48292683,21.5560976 9.48292683,22.1707317 C9.48292683,24.0585366 11.0195122,25.5731707 12.8853659,25.5731707 C14.7512195,25.5731707 16.2878049,24.0365854 16.2878049,22.1707317 C16.2878049,20.2829268 14.7512195,18.7682927 12.8853659,18.7682927 C12.2707317,18.7682927 11.7,18.9439024 11.195122,19.2292683 L6.5195122,14.5317073 C6.80487805,14.0268293 6.9804878,13.4560976 6.9804878,12.8414634 C6.9804878,12.2268293 6.80487805,11.6560976 6.5195122,11.1512195 L11.195122,6.47560976 C11.7,6.76097561 12.2707317,6.93658537 12.8853659,6.93658537 C14.7731707,6.93658537 16.2878049,5.4 16.2878049,3.53414634 C16.2878049,1.66829268 14.7512195,0.131707317 12.8853659,0.131707317 C11.0195122,0.131707317 9.48292683,1.66829268 9.48292683,3.53414634 C9.48292683,4.14878049 9.65853659,4.7195122 9.94390244,5.22439024 L5.24634146,9.87804878 C4.76341463,9.59268293 4.17073171,9.43902439 3.55609756,9.43902439 C1.66829268,9.43902439 0.153658537,10.9756098 0.153658537,12.8414634 C0.153658537,14.7073171 1.6902439,16.2439024 3.55609756,16.2439024 L3.55609756,16.2439024 Z M12.9073171,20.5682927 C13.8073171,20.5682927 14.5317073,21.2926829 14.5317073,22.1926829 C14.5317073,23.0926829 13.8073171,23.8170732 12.9073171,23.8170732 C12.0073171,23.8170732 11.2829268,23.0926829 11.2829268,22.1926829 C11.2829268,21.2926829 12.0073171,20.5682927 12.9073171,20.5682927 Z M12.9073171,1.88780488 C13.8073171,1.88780488 14.5317073,2.61219512 14.5317073,3.51219512 C14.5317073,4.41219512 13.8073171,5.13658537 12.9073171,5.13658537 C12.0073171,5.13658537 11.2829268,4.41219512 11.2829268,3.51219512 C11.2829268,2.61219512 12.0073171,1.88780488 12.9073171,1.88780488 Z M3.55609756,11.2170732 C4.45609756,11.2170732 5.1804878,11.9414634 5.1804878,12.8414634 C5.1804878,13.7414634 4.45609756,14.4658537 3.55609756,14.4658537 C2.65609756,14.4658537 1.93170732,13.7414634 1.93170732,12.8414634 C1.93170732,11.9414634 2.67804878,11.2170732 3.55609756,11.2170732 L3.55609756,11.2170732 Z" id="Shape"></path>
                </g>
            </g>
        </g>
    </g>
</svg>