<?xml version="1.0" encoding="UTF-8"?>
<svg width="45px" height="36px" viewBox="0 0 45 36" version="1.1" xmlns="http://www.w3.org/2000/svg" xmlns:xlink="http://www.w3.org/1999/xlink">
    <!-- Generator: Sketch 55.2 (78181) - https://sketchapp.com -->
    <title>twitter-silhouette</title>
    <desc>Created with Sketch.</desc>
    <g id="Symbols" stroke="none" stroke-width="1" fill="none" fill-rule="evenodd">
        <g id="social-media-copy" transform="translate(-61.000000, -10.000000)" fill="#E9248C" fill-rule="nonzero">
            <g id="twitter-silhouette" transform="translate(61.000000, 10.000000)">
                <path d="M45,4.25936647 C43.3437473,4.98216322 41.566612,5.47235571 39.6994031,5.6912007 C41.6059503,4.56677777 43.0653645,2.78328529 43.7570568,0.664645688 C41.9686715,1.70593359 39.9946242,2.46204229 37.8912384,2.87192403 C36.2068974,1.10226324 33.8110847,0 31.1537274,0 C26.0556308,0 21.9220211,4.07108157 21.9220211,9.0893086 C21.9220211,9.80102551 22.0035654,10.4961589 22.1610656,11.160877 C14.4900237,10.7814105 7.68788021,7.16177817 3.13529924,1.66161422 C2.33948912,3.00205786 1.88676779,4.5639535 1.88676779,6.23121627 C1.88676779,9.38564006 3.51772634,12.1689253 5.9922892,13.7973 C4.47941908,13.747477 3.05654911,13.3375952 1.81088531,12.6562936 L1.81088531,12.7698438 C1.81088531,17.1732483 4.99405228,20.8482798 9.21479447,21.6846992 C8.44148438,21.8896401 7.62604187,22.0031904 6.78243755,22.0031904 C6.18633364,22.0031904 5.60986211,21.9450393 5.0446406,21.8342409 C6.22001016,25.4483695 9.6281775,28.076537 13.6661988,28.1485922 C10.508326,30.5857229 6.52655478,32.0341407 2.2017683,32.0341407 C1.45662003,32.0341407 0.72264824,31.9898214 0,31.9095106 C4.0858155,34.4934312 8.93648519,36 14.1498761,36 C31.1313744,36 40.4137425,22.1472283 40.4137425,10.1334208 L40.3827866,8.95642291 C42.196466,7.68238591 43.7655127,6.08167461 45,4.25936647 Z" id="Path"></path>
            </g>
        </g>
    </g>
</svg>